<svg xmlns="http://www.w3.org/2000/svg" xmlns:xlink="http://www.w3.org/1999/xlink" width="200" zoomAndPan="magnify" viewBox="0 0 150 149.999998" height="200" preserveAspectRatio="xMidYMid meet" version="1.0"><defs><clipPath id="4c757ca995"><path d="M 87 80 L 100 80 L 100 92.742188 L 87 92.742188 Z M 87 80 " clip-rule="nonzero"/></clipPath><clipPath id="cdaac9373c"><path d="M 60 80 L 73 80 L 73 92.742188 L 60 92.742188 Z M 60 80 " clip-rule="nonzero"/></clipPath><clipPath id="e8de89c851"><path d="M 55 57.492188 L 88 57.492188 L 88 88 L 55 88 Z M 55 57.492188 " clip-rule="nonzero"/></clipPath></defs><path fill="#ffffff" d="M 61.25 87.5 L 56.25 87.5 C 55.558594 87.5 55 86.9375 55 86.25 C 55 85.558594 55.558594 85 56.25 85 L 61.25 85 C 61.941406 85 62.5 85.558594 62.5 86.25 C 62.5 86.9375 61.941406 87.5 61.25 87.5 Z M 61.25 87.5 " fill-opacity="1" fill-rule="nonzero"/><path fill="#ffffff" d="M 101.875 87.5 L 98.75 87.5 C 98.058594 87.5 97.5 86.9375 97.5 86.25 C 97.5 85.558594 98.058594 85 98.75 85 L 100.835938 85 L 102.523438 76.019531 C 102.5 71.421875 98.574219 67.5 93.75 67.5 L 85.542969 67.5 L 81.566406 85 L 88.75 85 C 89.441406 85 90 85.558594 90 86.25 C 90 86.9375 89.441406 87.5 88.75 87.5 L 80 87.5 C 79.621094 87.5 79.261719 87.328125 79.023438 87.027344 C 78.785156 86.734375 78.695312 86.34375 78.78125 85.972656 L 83.324219 65.972656 C 83.453125 65.402344 83.960938 65 84.546875 65 L 93.75 65 C 99.953125 65 105 70.046875 105 76.25 L 103.101562 86.480469 C 102.992188 87.070312 102.476562 87.5 101.875 87.5 Z M 101.875 87.5 " fill-opacity="1" fill-rule="nonzero"/><g clip-path="url(#4c757ca995)"><path fill="#ffffff" d="M 93.75 92.5 C 90.304688 92.5 87.5 89.695312 87.5 86.25 C 87.5 82.800781 90.304688 80 93.75 80 C 97.195312 80 100 82.800781 100 86.25 C 100 89.695312 97.195312 92.5 93.75 92.5 Z M 93.75 82.5 C 91.683594 82.5 90 84.179688 90 86.25 C 90 88.316406 91.683594 90 93.75 90 C 95.816406 90 97.5 88.316406 97.5 86.25 C 97.5 84.179688 95.816406 82.5 93.75 82.5 Z M 93.75 82.5 " fill-opacity="1" fill-rule="nonzero"/></g><g clip-path="url(#cdaac9373c)"><path fill="#ffffff" d="M 66.25 92.5 C 62.804688 92.5 60 89.695312 60 86.25 C 60 82.800781 62.804688 80 66.25 80 C 69.695312 80 72.5 82.800781 72.5 86.25 C 72.5 89.695312 69.695312 92.5 66.25 92.5 Z M 66.25 82.5 C 64.183594 82.5 62.5 84.179688 62.5 86.25 C 62.5 88.316406 64.183594 90 66.25 90 C 68.316406 90 70 88.316406 70 86.25 C 70 84.179688 68.316406 82.5 66.25 82.5 Z M 66.25 82.5 " fill-opacity="1" fill-rule="nonzero"/></g><path fill="#ffffff" d="M 61.25 65 L 51.25 65 C 50.558594 65 50 64.4375 50 63.75 C 50 63.058594 50.558594 62.5 51.25 62.5 L 61.25 62.5 C 61.941406 62.5 62.5 63.058594 62.5 63.75 C 62.5 64.4375 61.941406 65 61.25 65 Z M 61.25 65 " fill-opacity="1" fill-rule="nonzero"/><path fill="#ffffff" d="M 61.25 72.5 L 48.75 72.5 C 48.058594 72.5 47.5 71.9375 47.5 71.25 C 47.5 70.558594 48.058594 70 48.75 70 L 61.25 70 C 61.941406 70 62.5 70.558594 62.5 71.25 C 62.5 71.9375 61.941406 72.5 61.25 72.5 Z M 61.25 72.5 " fill-opacity="1" fill-rule="nonzero"/><path fill="#ffffff" d="M 61.25 80 L 46.25 80 C 45.558594 80 45 79.4375 45 78.75 C 45 78.058594 45.558594 77.5 46.25 77.5 L 61.25 77.5 C 61.941406 77.5 62.5 78.058594 62.5 78.75 C 62.5 79.4375 61.941406 80 61.25 80 Z M 61.25 80 " fill-opacity="1" fill-rule="nonzero"/><g clip-path="url(#e8de89c851)"><path fill="#ffffff" d="M 80 87.5 L 71.25 87.5 C 70.558594 87.5 70 86.9375 70 86.25 C 70 85.558594 70.558594 85 71.25 85 L 79.003906 85 L 84.683594 60 L 56.25 60 C 55.558594 60 55 59.4375 55 58.75 C 55 58.058594 55.558594 57.5 56.25 57.5 L 86.25 57.5 C 86.628906 57.5 86.988281 57.671875 87.226562 57.96875 C 87.464844 58.265625 87.554688 58.652344 87.46875 59.023438 L 81.21875 86.523438 C 81.089844 87.097656 80.582031 87.5 80 87.5 Z M 80 87.5 " fill-opacity="1" fill-rule="nonzero"/></g></svg>