<svg xmlns="http://www.w3.org/2000/svg" xmlns:xlink="http://www.w3.org/1999/xlink" width="200" zoomAndPan="magnify" viewBox="0 0 150 149.999998" height="200" preserveAspectRatio="xMidYMid meet" version="1.0"><defs><clipPath id="f259d88133"><path d="M 78 50.023438 L 94 50.023438 L 94 53 L 78 53 Z M 78 50.023438 " clip-rule="nonzero"/></clipPath><clipPath id="54192a0dc5"><path d="M 74 50.023438 L 77 50.023438 L 77 53 L 74 53 Z M 74 50.023438 " clip-rule="nonzero"/></clipPath></defs><path fill="#ffffff" d="M 81.992188 95.511719 L 81.992188 72.710938 L 102.96875 65.414062 L 102.96875 87.300781 Z M 70.003906 76.519531 L 67.007812 75.320312 L 67.007812 68.480469 L 70.003906 69.679688 Z M 80.992188 58.0625 L 84.636719 59.171875 L 66.304688 65.835938 L 61.242188 64.070312 Z M 90.824219 61.050781 L 71.691406 67.707031 L 69.296875 66.875 L 87.816406 60.140625 Z M 80.992188 70.945312 L 74.730469 68.765625 L 94.066406 62.039062 L 100.746094 64.070312 Z M 104.894531 63.648438 C 104.882812 63.617188 104.863281 63.589844 104.847656 63.558594 C 104.808594 63.484375 104.761719 63.414062 104.707031 63.351562 C 104.679688 63.320312 104.652344 63.292969 104.621094 63.265625 C 104.5625 63.214844 104.496094 63.171875 104.425781 63.136719 C 104.386719 63.117188 104.355469 63.097656 104.3125 63.082031 C 104.292969 63.074219 104.277344 63.0625 104.257812 63.054688 L 92.792969 59.566406 L 88.300781 58.066406 C 88.140625 58.011719 87.96875 58.015625 87.804688 58.046875 L 81.28125 56.0625 C 81.09375 56.003906 80.890625 56.003906 80.703125 56.0625 L 57.730469 63.054688 C 57.710938 63.0625 57.695312 63.074219 57.675781 63.082031 C 57.632812 63.097656 57.601562 63.117188 57.5625 63.136719 C 57.492188 63.171875 57.425781 63.214844 57.367188 63.265625 C 57.335938 63.292969 57.308594 63.320312 57.28125 63.351562 C 57.226562 63.414062 57.179688 63.484375 57.140625 63.558594 C 57.125 63.589844 57.105469 63.617188 57.09375 63.648438 C 57.050781 63.757812 57.023438 63.871094 57.019531 63.988281 C 57.019531 63.992188 57.019531 63.996094 57.019531 64 C 57.019531 64.003906 57.019531 64.003906 57.019531 64.007812 L 57.019531 71.003906 L 53.023438 71.003906 L 53.023438 73 L 63.011719 73 L 63.011719 71.003906 L 59.015625 71.003906 L 59.015625 65.414062 L 65.011719 67.5 L 65.011719 75.996094 C 65.011719 76.40625 65.261719 76.773438 65.640625 76.925781 L 70.632812 78.921875 C 70.753906 78.96875 70.878906 78.992188 71.003906 78.992188 C 71.203125 78.992188 71.398438 78.933594 71.5625 78.820312 C 71.839844 78.632812 72.003906 78.324219 72.003906 77.996094 L 72.003906 69.933594 L 79.996094 72.710938 L 79.996094 95.570312 L 59.015625 88.273438 L 59.015625 87.984375 C 59.015625 87.433594 58.570312 86.984375 58.019531 86.984375 C 57.46875 86.984375 57.019531 87.433594 57.019531 87.984375 L 57.019531 88.980469 C 57.019531 89.40625 57.289062 89.785156 57.691406 89.925781 L 80.664062 97.917969 C 80.667969 97.917969 80.675781 97.917969 80.679688 97.921875 C 80.773438 97.949219 80.871094 97.964844 80.96875 97.96875 C 80.976562 97.96875 80.984375 97.972656 80.992188 97.972656 C 81.109375 97.972656 81.222656 97.949219 81.328125 97.910156 C 81.335938 97.90625 81.347656 97.90625 81.355469 97.902344 L 104.332031 88.914062 C 104.714844 88.765625 104.96875 88.394531 104.96875 87.984375 L 104.96875 64.007812 C 104.96875 64.003906 104.96875 64.003906 104.96875 64 C 104.96875 63.996094 104.96875 63.992188 104.96875 63.988281 C 104.964844 63.871094 104.9375 63.757812 104.894531 63.648438 " fill-opacity="1" fill-rule="nonzero"/><path fill="#ffffff" d="M 49.027344 77.996094 L 45.03125 77.996094 L 45.03125 79.992188 L 49.027344 79.992188 L 49.027344 77.996094 " fill-opacity="1" fill-rule="nonzero"/><path fill="#ffffff" d="M 51.027344 83.988281 L 48.03125 83.988281 L 48.03125 85.984375 L 51.027344 85.984375 L 51.027344 83.988281 " fill-opacity="1" fill-rule="nonzero"/><path fill="#ffffff" d="M 70.003906 85.984375 L 70.003906 83.988281 L 59.015625 83.988281 L 59.015625 81.988281 C 59.015625 81.441406 58.570312 80.992188 58.019531 80.992188 C 57.46875 80.992188 57.019531 81.441406 57.019531 81.988281 L 57.019531 83.988281 L 53.023438 83.988281 L 53.023438 85.984375 L 70.003906 85.984375 " fill-opacity="1" fill-rule="nonzero"/><path fill="#ffffff" d="M 51.027344 71.003906 L 48.03125 71.003906 L 48.03125 73 L 51.027344 73 L 51.027344 71.003906 " fill-opacity="1" fill-rule="nonzero"/><path fill="#ffffff" d="M 58.019531 74 C 57.46875 74 57.019531 74.449219 57.019531 74.996094 L 57.019531 77.996094 L 51.027344 77.996094 L 51.027344 79.992188 L 65.011719 79.992188 L 65.011719 77.996094 L 59.015625 77.996094 L 59.015625 74.996094 C 59.015625 74.449219 58.570312 74 58.019531 74 " fill-opacity="1" fill-rule="nonzero"/><g clip-path="url(#f259d88133)"><path fill="#ffffff" d="M 78.996094 52.023438 L 93.980469 52.023438 L 93.980469 50.023438 L 78.996094 50.023438 L 78.996094 52.023438 " fill-opacity="1" fill-rule="nonzero"/></g><g clip-path="url(#54192a0dc5)"><path fill="#ffffff" d="M 76.996094 52.023438 L 76.996094 50.023438 L 74 50.023438 L 74 52.023438 L 76.996094 52.023438 " fill-opacity="1" fill-rule="nonzero"/></g><path fill="#ffffff" d="M 71.003906 97.972656 L 56.019531 97.972656 L 56.019531 99.96875 L 71.003906 99.96875 L 71.003906 97.972656 " fill-opacity="1" fill-rule="nonzero"/><path fill="#ffffff" d="M 54.023438 97.972656 L 51.027344 97.972656 L 51.027344 99.96875 L 54.023438 99.96875 L 54.023438 97.972656 " fill-opacity="1" fill-rule="nonzero"/><path fill="#ffffff" d="M 86.15625 72.445312 L 83.605469 76.273438 L 85.265625 77.382812 L 85.988281 76.296875 L 85.988281 78.992188 L 87.984375 78.992188 L 87.984375 74.617188 L 89.433594 75.339844 L 90.328125 73.550781 L 87.4375 72.105469 C 86.984375 71.878906 86.4375 72.027344 86.15625 72.445312 " fill-opacity="1" fill-rule="nonzero"/><path fill="#ffffff" d="M 93.148438 69.449219 L 90.597656 73.277344 L 92.257812 74.386719 L 92.980469 73.300781 L 92.980469 75.996094 L 94.976562 75.996094 L 94.976562 71.617188 L 96.425781 72.34375 L 97.320312 70.554688 L 94.429688 69.109375 C 93.976562 68.882812 93.429688 69.03125 93.148438 69.449219 " fill-opacity="1" fill-rule="nonzero"/></svg>