<svg xmlns="http://www.w3.org/2000/svg" xmlns:xlink="http://www.w3.org/1999/xlink" width="200" zoomAndPan="magnify" viewBox="0 0 150 149.999998" height="200" preserveAspectRatio="xMidYMid meet" version="1.0"><defs><clipPath id="d2ea3ad1d1"><path d="M 71 50.863281 L 96 50.863281 L 96 75 L 71 75 Z M 71 50.863281 " clip-rule="nonzero"/></clipPath><clipPath id="9b6d8582fd"><path d="M 45 75 L 105 75 L 105 98.863281 L 45 98.863281 Z M 45 75 " clip-rule="nonzero"/></clipPath></defs><g clip-path="url(#d2ea3ad1d1)"><path fill="#ffffff" d="M 83.582031 74.597656 C 90.125 74.597656 95.449219 69.273438 95.449219 62.730469 C 95.449219 56.1875 90.125 50.863281 83.582031 50.863281 C 77.039062 50.863281 71.714844 56.1875 71.714844 62.730469 C 71.714844 69.273438 77.039062 74.597656 83.582031 74.597656 Z M 73.6875 62.730469 C 73.6875 57.277344 78.125 52.835938 83.582031 52.835938 C 89.039062 52.835938 93.476562 57.277344 93.476562 62.730469 C 93.476562 68.1875 89.039062 72.625 83.582031 72.625 C 78.125 72.625 73.6875 68.1875 73.6875 62.730469 Z M 73.6875 62.730469 " fill-opacity="1" fill-rule="nonzero"/></g><path fill="#ffffff" d="M 80.683594 68.167969 C 81.195312 68.667969 81.878906 69.019531 82.628906 69.175781 L 82.621094 70.222656 C 82.617188 70.753906 83.046875 71.1875 83.574219 71.191406 L 83.582031 71.191406 C 84.109375 71.191406 84.539062 70.761719 84.542969 70.238281 L 84.550781 69.171875 C 85.296875 69.011719 85.976562 68.660156 86.488281 68.160156 C 87.078125 67.578125 87.40625 66.835938 87.40625 66.066406 L 87.40625 65.640625 C 87.40625 64.617188 86.828125 63.652344 85.863281 63.054688 L 82.441406 60.933594 C 82.039062 60.6875 81.808594 60.335938 81.808594 59.980469 L 81.808594 59.316406 C 81.808594 58.992188 81.988281 58.683594 82.3125 58.441406 C 82.667969 58.179688 83.140625 58.035156 83.648438 58.035156 C 84.15625 58.035156 84.628906 58.179688 84.984375 58.441406 C 85.308594 58.683594 85.484375 58.992188 85.484375 59.316406 L 85.484375 60.0625 C 85.484375 60.59375 85.917969 61.023438 86.445312 61.023438 C 86.976562 61.023438 87.40625 60.59375 87.40625 60.0625 L 87.40625 59.316406 C 87.40625 57.855469 86.246094 56.589844 84.609375 56.222656 L 84.609375 55.234375 C 84.609375 54.703125 84.175781 54.273438 83.648438 54.273438 C 83.117188 54.273438 82.6875 54.703125 82.6875 55.234375 L 82.6875 56.222656 C 81.050781 56.589844 79.890625 57.855469 79.890625 59.316406 L 79.890625 59.980469 C 79.890625 61.003906 80.464844 61.96875 81.429688 62.566406 L 84.855469 64.6875 C 85.253906 64.933594 85.484375 65.28125 85.484375 65.640625 L 85.484375 66.066406 C 85.484375 66.386719 85.308594 66.699219 84.984375 66.9375 C 84.628906 67.199219 84.15625 67.34375 83.648438 67.34375 L 83.515625 67.34375 C 83.007812 67.34375 82.535156 67.199219 82.183594 66.9375 C 81.859375 66.699219 81.679688 66.386719 81.679688 66.066406 L 81.679688 65.652344 C 81.679688 65.125 81.25 64.691406 80.71875 64.691406 C 80.191406 64.691406 79.757812 65.125 79.757812 65.652344 L 79.757812 66.066406 C 79.757812 66.839844 80.085938 67.585938 80.683594 68.167969 Z M 80.683594 68.167969 " fill-opacity="1" fill-rule="nonzero"/><g clip-path="url(#9b6d8582fd)"><path fill="#ffffff" d="M 103.601562 77.449219 C 102.261719 75.964844 100.125 75.816406 98.621094 77.101562 L 89.804688 84.234375 C 89.808594 84.144531 89.8125 84.058594 89.808594 83.96875 C 89.773438 81.84375 88.105469 80.113281 86.089844 80.113281 L 76.300781 80.113281 C 75.738281 80.113281 75.203125 79.789062 74.878906 79.242188 C 74.808594 79.125 74.710938 79.027344 74.601562 78.941406 C 70.59375 75.78125 65.210938 75.367188 60.597656 77.417969 L 58.894531 78.171875 L 55.46875 78.171875 L 55.46875 76.609375 C 55.46875 76.050781 55.015625 75.59375 54.453125 75.59375 L 46.015625 75.59375 C 45.457031 75.59375 45 76.050781 45 76.609375 L 45 95.402344 C 45 95.964844 45.457031 96.417969 46.015625 96.417969 L 54.453125 96.417969 C 55.015625 96.417969 55.46875 95.964844 55.46875 95.402344 L 55.46875 93.789062 L 58.953125 93.789062 L 71.003906 97.617188 C 73.734375 98.625 76.027344 99.132812 78.316406 99.132812 C 80.152344 99.132812 81.992188 98.808594 84.054688 98.15625 C 84.246094 98.097656 84.4375 98.035156 84.628906 97.96875 C 85.046875 97.808594 85.453125 97.617188 85.84375 97.398438 C 86.167969 97.21875 86.472656 97.011719 86.757812 96.777344 L 103.597656 83.039062 C 103.652344 82.996094 103.703125 82.945312 103.746094 82.886719 C 105 81.324219 104.9375 78.933594 103.601562 77.449219 Z M 53.4375 94.386719 L 47.03125 94.386719 L 47.03125 77.625 L 53.4375 77.625 Z M 102.21875 81.542969 L 86.515625 94.355469 C 85.144531 95.472656 83.535156 96.265625 81.8125 96.671875 C 78.398438 97.46875 75.582031 97.144531 71.6875 95.703125 C 71.671875 95.695312 71.65625 95.691406 71.640625 95.6875 L 59.417969 91.804688 C 59.316406 91.773438 59.214844 91.757812 59.109375 91.757812 L 55.46875 91.757812 L 55.46875 80.207031 L 59.109375 80.207031 C 59.25 80.207031 59.390625 80.175781 59.523438 80.117188 L 61.421875 79.273438 C 65.308594 77.546875 69.71875 78 73.257812 80.480469 C 73.964844 81.527344 75.089844 82.148438 76.300781 82.148438 L 86.089844 82.148438 C 87.003906 82.148438 87.761719 82.980469 87.777344 84.003906 C 87.789062 84.570312 87.582031 85.105469 87.21875 85.476562 C 87.039062 85.660156 86.828125 85.792969 86.605469 85.867188 C 86.316406 85.914062 86.023438 85.9375 85.726562 85.9375 L 74.839844 85.9375 C 74.28125 85.9375 73.816406 86.378906 73.808594 86.9375 C 73.800781 87.507812 74.257812 87.96875 74.824219 87.96875 L 86.175781 87.96875 C 86.480469 87.96875 86.78125 87.925781 87.070312 87.847656 C 88.335938 87.621094 89.535156 87.066406 90.585938 86.21875 L 99.910156 78.671875 C 99.917969 78.664062 99.929688 78.660156 99.9375 78.652344 C 100.59375 78.085938 101.5 78.152344 102.089844 78.808594 C 102.746094 79.539062 102.796875 80.742188 102.21875 81.542969 Z M 102.21875 81.542969 " fill-opacity="1" fill-rule="nonzero"/></g></svg>