<svg xmlns="http://www.w3.org/2000/svg" xmlns:xlink="http://www.w3.org/1999/xlink" width="1000" zoomAndPan="magnify" viewBox="0 0 750 749.999995" height="1000" preserveAspectRatio="xMidYMid meet" version="1.0"><path fill="#ffffff" d="M 375.023438 750.023438 C 168.246094 750.023438 0 581.800781 0 375.023438 C 0 168.246094 168.246094 0 375.023438 0 C 581.800781 0 750.046875 168.246094 750.046875 375.023438 C 750.046875 581.800781 581.800781 750.023438 375.023438 750.023438 Z M 375.023438 31.246094 C 185.476562 31.246094 31.246094 185.453125 31.246094 375.023438 C 31.246094 564.59375 185.453125 718.800781 375.023438 718.800781 C 564.59375 718.800781 718.800781 564.59375 718.800781 375.023438 C 718.800781 185.453125 564.570312 31.246094 375.023438 31.246094 Z M 375.023438 31.246094 " fill-opacity="1" fill-rule="nonzero"/><path fill="#ffffff" d="M 376.832031 484.398438 C 283.046875 484.398438 206.730469 407.304688 206.730469 312.53125 C 206.730469 217.757812 283.023438 140.644531 376.832031 140.644531 C 470.617188 140.644531 546.914062 217.757812 546.914062 312.53125 C 546.914062 407.304688 470.59375 484.398438 376.832031 484.398438 Z M 376.832031 171.890625 C 300.28125 171.890625 238 234.96875 238 312.53125 C 238 390.070312 300.28125 453.152344 376.832031 453.152344 C 453.386719 453.152344 515.667969 390.070312 515.667969 312.53125 C 515.644531 234.96875 453.386719 171.890625 376.832031 171.890625 Z M 376.832031 171.890625 " fill-opacity="1" fill-rule="nonzero"/><path fill="#ffffff" d="M 610.296875 656.285156 C 604.230469 656.285156 598.472656 652.734375 595.933594 646.808594 C 558.292969 559.019531 469.632812 500.03125 375.304688 500.03125 C 281.003906 500.03125 192.34375 559.019531 154.703125 646.808594 C 151.292969 654.734375 142.101562 658.402344 134.175781 655.015625 C 126.253906 651.605469 122.585938 642.414062 125.972656 634.492188 C 168.480469 535.367188 268.683594 468.785156 375.304688 468.785156 C 481.953125 468.785156 582.179688 535.390625 624.664062 634.492188 C 628.070312 642.414062 624.378906 651.605469 616.457031 655.015625 C 614.4375 655.886719 612.34375 656.285156 610.296875 656.285156 Z M 610.296875 656.285156 " fill-opacity="1" fill-rule="nonzero"/></svg>