<svg xmlns="http://www.w3.org/2000/svg" xmlns:xlink="http://www.w3.org/1999/xlink" width="1000" zoomAndPan="magnify" viewBox="0 0 750 749.999995" height="1000" preserveAspectRatio="xMidYMid meet" version="1.0"><defs><clipPath id="138d051ec0"><path d="M 133 293 L 709.703125 293 L 709.703125 457 L 133 457 Z M 133 293 " clip-rule="nonzero"/></clipPath><clipPath id="480bcb4195"><path d="M 40 271.136719 L 248 271.136719 L 248 478.886719 L 40 478.886719 Z M 40 271.136719 " clip-rule="nonzero"/></clipPath></defs><g clip-path="url(#138d051ec0)"><path fill="#f67d00" d="M 133.054688 456.515625 L 628.433594 456.515625 C 673.457031 456.515625 709.953125 420.019531 709.953125 375 C 709.953125 329.976562 673.457031 293.480469 628.433594 293.480469 L 133.054688 293.480469 Z M 133.054688 456.515625 " fill-opacity="1" fill-rule="nonzero"/></g><g clip-path="url(#480bcb4195)"><path fill="#fffaf3" d="M 247.757812 375 C 247.757812 376.699219 247.714844 378.398438 247.632812 380.09375 C 247.546875 381.792969 247.421875 383.488281 247.257812 385.179688 C 247.089844 386.871094 246.882812 388.554688 246.632812 390.238281 C 246.382812 391.917969 246.09375 393.59375 245.761719 395.261719 C 245.429688 396.925781 245.058594 398.585938 244.644531 400.234375 C 244.230469 401.882812 243.777344 403.519531 243.285156 405.148438 C 242.792969 406.773438 242.257812 408.386719 241.6875 409.988281 C 241.113281 411.585938 240.5 413.171875 239.851562 414.742188 C 239.199219 416.3125 238.511719 417.867188 237.785156 419.402344 C 237.058594 420.941406 236.292969 422.457031 235.492188 423.957031 C 234.691406 425.457031 233.855469 426.933594 232.980469 428.390625 C 232.105469 429.851562 231.199219 431.285156 230.253906 432.699219 C 229.308594 434.113281 228.332031 435.5 227.320312 436.867188 C 226.304688 438.230469 225.261719 439.570312 224.183594 440.886719 C 223.105469 442.199219 221.996094 443.484375 220.851562 444.746094 C 219.710938 446.003906 218.539062 447.234375 217.335938 448.4375 C 216.136719 449.640625 214.90625 450.8125 213.644531 451.953125 C 212.386719 453.09375 211.101562 454.203125 209.785156 455.28125 C 208.472656 456.359375 207.132812 457.40625 205.765625 458.417969 C 204.402344 459.429688 203.011719 460.410156 201.597656 461.355469 C 200.1875 462.296875 198.75 463.207031 197.292969 464.082031 C 195.835938 464.953125 194.355469 465.792969 192.855469 466.59375 C 191.359375 467.394531 189.839844 468.160156 188.304688 468.886719 C 186.765625 469.613281 185.214844 470.300781 183.644531 470.953125 C 182.074219 471.601562 180.488281 472.214844 178.886719 472.785156 C 177.285156 473.359375 175.671875 473.890625 174.046875 474.386719 C 172.421875 474.878906 170.78125 475.332031 169.132812 475.746094 C 167.484375 476.15625 165.828125 476.53125 164.160156 476.863281 C 162.492188 477.191406 160.820312 477.484375 159.136719 477.734375 C 157.457031 477.984375 155.769531 478.191406 154.078125 478.355469 C 152.386719 478.523438 150.691406 478.648438 148.996094 478.730469 C 147.296875 478.816406 145.597656 478.855469 143.898438 478.855469 C 142.199219 478.855469 140.5 478.816406 138.800781 478.730469 C 137.105469 478.648438 135.410156 478.523438 133.71875 478.355469 C 132.027344 478.191406 130.339844 477.984375 128.660156 477.734375 C 126.976562 477.484375 125.304688 477.191406 123.636719 476.863281 C 121.96875 476.53125 120.3125 476.15625 118.664062 475.746094 C 117.015625 475.332031 115.375 474.878906 113.75 474.386719 C 112.125 473.890625 110.511719 473.359375 108.910156 472.785156 C 107.308594 472.214844 105.722656 471.601562 104.152344 470.953125 C 102.582031 470.300781 101.03125 469.613281 99.492188 468.886719 C 97.957031 468.160156 96.4375 467.394531 94.941406 466.59375 C 93.441406 465.792969 91.960938 464.953125 90.503906 464.082031 C 89.046875 463.207031 87.609375 462.296875 86.199219 461.355469 C 84.785156 460.410156 83.394531 459.429688 82.03125 458.417969 C 80.664062 457.40625 79.324219 456.359375 78.011719 455.28125 C 76.699219 454.203125 75.410156 453.09375 74.152344 451.953125 C 72.890625 450.8125 71.660156 449.640625 70.460938 448.4375 C 69.257812 447.234375 68.085938 446.003906 66.945312 444.746094 C 65.804688 443.484375 64.691406 442.199219 63.613281 440.886719 C 62.535156 439.570312 61.492188 438.230469 60.476562 436.867188 C 59.464844 435.5 58.488281 434.113281 57.542969 432.699219 C 56.597656 431.285156 55.691406 429.851562 54.816406 428.390625 C 53.941406 426.933594 53.105469 425.457031 52.304688 423.957031 C 51.503906 422.457031 50.738281 420.941406 50.011719 419.402344 C 49.285156 417.867188 48.597656 416.3125 47.945312 414.742188 C 47.296875 413.171875 46.683594 411.585938 46.109375 409.988281 C 45.539062 408.386719 45.003906 406.773438 44.511719 405.148438 C 44.019531 403.519531 43.566406 401.882812 43.152344 400.234375 C 42.738281 398.585938 42.367188 396.925781 42.035156 395.261719 C 41.703125 393.59375 41.414062 391.917969 41.164062 390.238281 C 40.914062 388.554688 40.707031 386.871094 40.539062 385.179688 C 40.375 383.488281 40.25 381.792969 40.164062 380.09375 C 40.082031 378.398438 40.039062 376.699219 40.039062 375 C 40.039062 373.296875 40.082031 371.601562 40.164062 369.902344 C 40.25 368.203125 40.375 366.511719 40.539062 364.820312 C 40.707031 363.128906 40.914062 361.441406 41.164062 359.757812 C 41.414062 358.078125 41.703125 356.402344 42.035156 354.738281 C 42.367188 353.070312 42.738281 351.410156 43.152344 349.761719 C 43.566406 348.113281 44.019531 346.476562 44.511719 344.851562 C 45.003906 343.222656 45.539062 341.609375 46.109375 340.007812 C 46.683594 338.410156 47.296875 336.824219 47.945312 335.253906 C 48.597656 333.683594 49.285156 332.128906 50.011719 330.59375 C 50.738281 329.054688 51.503906 327.539062 52.304688 326.039062 C 53.105469 324.539062 53.941406 323.0625 54.816406 321.605469 C 55.691406 320.144531 56.597656 318.710938 57.542969 317.296875 C 58.488281 315.882812 59.464844 314.496094 60.476562 313.128906 C 61.492188 311.765625 62.535156 310.425781 63.613281 309.109375 C 64.691406 307.796875 65.804688 306.511719 66.945312 305.25 C 68.085938 303.992188 69.257812 302.761719 70.460938 301.558594 C 71.660156 300.355469 72.890625 299.1875 74.152344 298.042969 C 75.410156 296.902344 76.699219 295.792969 78.011719 294.714844 C 79.324219 293.636719 80.664062 292.589844 82.03125 291.578125 C 83.394531 290.566406 84.785156 289.585938 86.199219 288.644531 C 87.609375 287.699219 89.046875 286.789062 90.503906 285.914062 C 91.960938 285.042969 93.441406 284.203125 94.941406 283.402344 C 96.4375 282.601562 97.957031 281.839844 99.492188 281.109375 C 101.03125 280.382812 102.582031 279.695312 104.152344 279.046875 C 105.722656 278.394531 107.308594 277.785156 108.910156 277.210938 C 110.511719 276.636719 112.125 276.105469 113.75 275.613281 C 115.375 275.117188 117.015625 274.664062 118.664062 274.253906 C 120.3125 273.839844 121.96875 273.46875 123.636719 273.136719 C 125.304688 272.804688 126.976562 272.511719 128.660156 272.265625 C 130.339844 272.015625 132.027344 271.804688 133.71875 271.640625 C 135.410156 271.472656 137.105469 271.347656 138.800781 271.265625 C 140.5 271.179688 142.199219 271.140625 143.898438 271.140625 C 145.597656 271.140625 147.296875 271.179688 148.996094 271.265625 C 150.691406 271.347656 152.386719 271.472656 154.078125 271.640625 C 155.769531 271.804688 157.457031 272.015625 159.136719 272.265625 C 160.820312 272.511719 162.492188 272.804688 164.160156 273.136719 C 165.828125 273.46875 167.484375 273.839844 169.132812 274.253906 C 170.78125 274.664062 172.421875 275.117188 174.046875 275.613281 C 175.671875 276.105469 177.285156 276.636719 178.886719 277.210938 C 180.488281 277.785156 182.074219 278.394531 183.644531 279.046875 C 185.214844 279.695312 186.765625 280.382812 188.304688 281.109375 C 189.839844 281.839844 191.359375 282.601562 192.855469 283.402344 C 194.355469 284.203125 195.835938 285.042969 197.292969 285.914062 C 198.75 286.789062 200.1875 287.699219 201.597656 288.644531 C 203.011719 289.585938 204.402344 290.566406 205.765625 291.578125 C 207.132812 292.589844 208.472656 293.636719 209.785156 294.714844 C 211.097656 295.792969 212.386719 296.902344 213.644531 298.042969 C 214.90625 299.1875 216.136719 300.355469 217.335938 301.558594 C 218.539062 302.761719 219.710938 303.992188 220.851562 305.25 C 221.992188 306.511719 223.105469 307.796875 224.183594 309.109375 C 225.261719 310.425781 226.304688 311.765625 227.320312 313.128906 C 228.332031 314.496094 229.308594 315.882812 230.253906 317.296875 C 231.199219 318.710938 232.105469 320.144531 232.980469 321.605469 C 233.855469 323.0625 234.691406 324.539062 235.492188 326.039062 C 236.292969 327.539062 237.058594 329.054688 237.785156 330.59375 C 238.511719 332.128906 239.199219 333.683594 239.851562 335.253906 C 240.5 336.824219 241.113281 338.410156 241.6875 340.007812 C 242.257812 341.609375 242.792969 343.222656 243.285156 344.851562 C 243.777344 346.476562 244.230469 348.113281 244.644531 349.761719 C 245.058594 351.410156 245.429688 353.070312 245.761719 354.738281 C 246.09375 356.402344 246.382812 358.078125 246.632812 359.757812 C 246.882812 361.441406 247.089844 363.128906 247.257812 364.820312 C 247.421875 366.511719 247.546875 368.203125 247.632812 369.902344 C 247.714844 371.601562 247.757812 373.296875 247.757812 375 Z M 247.757812 375 " fill-opacity="1" fill-rule="nonzero"/></g><path fill="#f67d00" d="M 143.898438 466.835938 C 93.257812 466.835938 52.058594 425.640625 52.058594 375 C 52.058594 324.355469 93.257812 283.160156 143.898438 283.160156 C 194.539062 283.160156 235.734375 324.355469 235.734375 375 C 235.734375 425.640625 194.542969 466.835938 143.898438 466.835938 Z M 143.898438 285.773438 C 94.699219 285.773438 54.671875 325.796875 54.671875 375 C 54.671875 424.199219 94.699219 464.222656 143.898438 464.222656 C 193.097656 464.222656 233.125 424.199219 233.125 375 C 233.125 325.796875 193.097656 285.773438 143.898438 285.773438 Z M 143.898438 285.773438 " fill-opacity="1" fill-rule="nonzero"/><path fill="#fffaf3" d="M 370.308594 391.703125 L 370.308594 404.828125 L 335.359375 404.828125 L 335.359375 345.167969 L 348.992188 345.167969 L 348.992188 391.703125 Z M 370.308594 391.703125 " fill-opacity="1" fill-rule="nonzero"/><path fill="#fffaf3" d="M 370.308594 375 C 370.308594 357.441406 384.199219 343.972656 401.332031 343.972656 C 418.464844 343.972656 432.355469 357.449219 432.355469 375 C 432.355469 392.546875 418.460938 406.023438 401.332031 406.023438 C 384.203125 406.023438 370.308594 392.554688 370.308594 375 Z M 418.71875 375 C 418.71875 364.34375 411.046875 357.269531 401.332031 357.269531 C 391.617188 357.269531 383.945312 364.351562 383.945312 375 C 383.945312 385.644531 391.613281 392.726562 401.332031 392.726562 C 411.050781 392.726562 418.71875 385.652344 418.71875 375 Z M 418.71875 375 " fill-opacity="1" fill-rule="nonzero"/><path fill="#fffaf3" d="M 499.089844 376.703125 C 499.089844 394.941406 486.390625 406.023438 469.683594 406.023438 C 450.933594 406.023438 437.476562 392.214844 437.476562 375.082031 C 437.476562 357.78125 451.199219 343.972656 468.757812 343.972656 C 480.179688 343.972656 489.808594 349.601562 494.835938 357.609375 L 483.238281 364.261719 C 480.765625 360.339844 475.394531 357.273438 468.660156 357.273438 C 458.609375 357.273438 451.105469 364.6875 451.105469 375.171875 C 451.105469 385.3125 458.261719 392.730469 469.855469 392.730469 C 477.78125 392.730469 482.980469 389.234375 485.113281 383.523438 L 469.171875 383.523438 L 469.171875 371.59375 L 499.097656 371.59375 Z M 499.089844 376.703125 " fill-opacity="1" fill-rule="nonzero"/><path fill="#fffaf3" d="M 528.066406 345.167969 L 541.703125 345.167969 L 541.703125 404.828125 L 528.066406 404.828125 Z M 528.066406 345.167969 " fill-opacity="1" fill-rule="nonzero"/><path fill="#fffaf3" d="M 598.808594 345.167969 L 598.808594 404.828125 L 588.570312 404.828125 L 565.558594 372.441406 L 565.558594 404.828125 L 551.921875 404.828125 L 551.921875 345.167969 L 562.148438 345.167969 L 585.160156 377.554688 L 585.160156 345.167969 Z M 598.808594 345.167969 " fill-opacity="1" fill-rule="nonzero"/><path fill="#f67d00" d="M 104.105469 422.597656 C 102.453125 421.835938 102.015625 420.523438 102.050781 418.757812 C 102.378906 401.679688 115.40625 386.492188 132.226562 383.738281 C 134.339844 383.414062 136.460938 383.234375 138.597656 383.203125 C 142.378906 383.121094 146.164062 383.066406 149.9375 383.203125 C 164.265625 383.734375 174.761719 390.53125 181.628906 402.996094 C 184.328125 407.902344 185.511719 413.261719 185.742188 418.851562 C 185.8125 420.589844 185.285156 421.851562 183.683594 422.597656 Z M 104.105469 422.597656 " fill-opacity="1" fill-rule="nonzero"/><path fill="#f67d00" d="M 145.941406 327.398438 C 147.839844 327.808594 149.789062 328.066406 151.628906 328.65625 C 162.550781 332.164062 169.84375 342.925781 168.953125 354.089844 C 168.007812 365.96875 159.46875 375.382812 147.917969 377.261719 C 147.074219 377.398438 146.226562 377.492188 145.375 377.542969 C 144.523438 377.59375 143.671875 377.597656 142.820312 377.5625 C 141.964844 377.527344 141.117188 377.445312 140.273438 377.324219 C 139.429688 377.199219 138.59375 377.03125 137.765625 376.824219 C 136.9375 376.617188 136.125 376.367188 135.324219 376.074219 C 134.519531 375.78125 133.734375 375.449219 132.96875 375.078125 C 132.199219 374.707031 131.453125 374.296875 130.726562 373.847656 C 130 373.402344 129.296875 372.917969 128.621094 372.398438 C 127.945312 371.878906 127.296875 371.324219 126.675781 370.738281 C 126.054688 370.15625 125.464844 369.539062 124.910156 368.894531 C 124.351562 368.246094 123.828125 367.574219 123.339844 366.875 C 122.851562 366.175781 122.398438 365.453125 121.984375 364.707031 C 121.566406 363.964844 121.191406 363.199219 120.851562 362.414062 C 120.515625 361.632812 120.21875 360.832031 119.964844 360.019531 C 119.707031 359.203125 119.496094 358.378906 119.324219 357.542969 C 119.152344 356.707031 119.023438 355.863281 118.9375 355.015625 C 117.539062 341.351562 127.519531 329.011719 141.132812 327.5625 C 141.375 327.523438 141.617188 327.46875 141.851562 327.398438 Z M 145.941406 327.398438 " fill-opacity="1" fill-rule="nonzero"/></svg>