<svg xmlns="http://www.w3.org/2000/svg" xmlns:xlink="http://www.w3.org/1999/xlink" width="1000" zoomAndPan="magnify" viewBox="0 0 750 749.999995" height="1000" preserveAspectRatio="xMidYMid meet" version="1.0"><defs><clipPath id="7cbfddd626"><path d="M 10 529 L 741 529 L 741 640.6875 L 10 640.6875 Z M 10 529 " clip-rule="nonzero"/></clipPath></defs><path fill="#f67d00" d="M 685.730469 221.988281 L 65.605469 221.988281 C 35.078125 221.988281 10.332031 197.242188 10.332031 166.714844 C 9.886719 130.6875 44.007812 109.835938 65.789062 111.445312 C 79.226562 111.480469 685.320312 111.40625 686.644531 111.449219 C 759.097656 115.351562 758.679688 219.085938 685.730469 221.988281 Z M 685.730469 221.988281 " fill-opacity="1" fill-rule="nonzero"/><path fill="#f67d00" d="M 685.730469 431.226562 L 65.605469 431.226562 C 35.078125 431.226562 10.332031 406.480469 10.332031 375.957031 C 9.886719 339.929688 44.007812 319.078125 65.789062 320.683594 C 79.226562 320.71875 685.320312 320.648438 686.644531 320.691406 C 759.097656 324.589844 758.679688 428.328125 685.730469 431.226562 Z M 685.730469 431.226562 " fill-opacity="1" fill-rule="nonzero"/><g clip-path="url(#7cbfddd626)"><path fill="#f67d00" d="M 685.730469 640.46875 L 65.605469 640.46875 C 35.078125 640.46875 10.332031 615.722656 10.332031 585.195312 C 9.886719 549.167969 44.007812 528.316406 65.789062 529.925781 C 79.226562 529.960938 685.320312 529.886719 686.644531 529.933594 C 759.097656 533.832031 758.679688 637.566406 685.730469 640.46875 Z M 685.730469 640.46875 " fill-opacity="1" fill-rule="nonzero"/></g></svg>